<svg version="1.2" xmlns="http://www.w3.org/2000/svg" viewBox="0 0 86 85" width="86" height="85"><defs><clipPath clipPathUnits="userSpaceOnUse" id="cp1"><path d="m-1271-1139h1920v2776h-1920z"/></clipPath></defs><style>.a{fill:#32325f}</style><g clip-path="url(#cp1)"><path  d="m44.5 60.1c0 0.9-0.7 1.7-1.6 1.7-1 0-1.7-0.8-1.7-1.7 0-0.9 0.7-1.7 1.7-1.7 0.9 0 1.6 0.8 1.6 1.7z"/><path fill-rule="evenodd" class="a" d="m84.4 35l-11 5.2 11 5.1c0.6 0.3 1 0.9 1 1.5 0 0.6-0.4 1.2-1 1.5l-13.3 6.4v15.4c0 0.6-0.4 1.2-0.9 1.4l-26.6 13.3q0 0 0 0-0.1 0.1-0.1 0.1-0.1 0-0.1 0-0.1 0-0.1 0-0.1 0.1-0.2 0.1 0 0 0 0-0.1 0-0.2 0-0.1 0-0.1 0-0.1 0-0.1 0-0.1 0-0.1 0-0.1 0-0.2-0.1 0 0 0 0-0.1 0-0.2 0 0 0 0-0.1-0.1 0-0.1 0l-26.5-13.3c-0.6-0.2-1-0.8-1-1.4v-15.4l-13.3-6.4c-0.6-0.3-0.9-0.9-0.9-1.5 0-0.6 0.3-1.2 0.9-1.5l11.1-5.1-11.1-5.2c-0.6-0.2-0.9-0.8-0.9-1.5 0-0.6 0.3-1.2 0.9-1.5l27.6-13.2c0.4-0.3 1-0.3 1.4 0l5.9 2.9v-20c0-1 0.8-1.7 1.7-1.7h9.9c1 0 1.7 0.7 1.7 1.7v20l5.9-2.9c0.5-0.3 1-0.3 1.5 0l27.5 13.2c0.6 0.3 1 0.9 1 1.5 0 0.7-0.4 1.3-1 1.5zm-44.9-8.1c0 0.9-0.7 1.7-1.6 1.7h-1.7l0.7 0.9 6 7.9 6.6-8.8h-1.7c-0.9 0-1.6-0.8-1.6-1.7v-23.6h-6.7zm26.2 13.3l-15.1-7.6-6.4 8.6c-0.3 0.4-0.8 0.7-1.3 0.7-0.6 0-1.1-0.3-1.4-0.7l-6.4-8.6-15.1 7.6 22.9 11.4zm-59.9-6.6l10.4 4.8 16.8-8.4-1.5-2.1c-0.4-0.5-0.4-1.1-0.1-1.7 0.2-0.6 0.8-0.9 1.4-0.9h3l-6.3-3.1zm0 13.3l23.7 11.4 9.6-4.8-22.9-11.4zm61.8 9.5l-10.9 5.2c-0.4 0.2-1 0.2-1.4 0l-12.6-6.3-12.5 6.3c-0.5 0.2-1 0.2-1.5 0l-10.9-5.2v12.7l23.3 11.6v-13.9c0-1 0.7-1.7 1.6-1.7 1 0 1.7 0.7 1.7 1.7v13.9l23.2-11.6zm12.1-9.5l-10.4-4.9-22.8 11.5 9.5 4.8zm0-13.4l-23.6-11.4-6.3 3.2h2.9c0.7 0 1.2 0.3 1.5 0.9 0.3 0.5 0.2 1.2-0.1 1.7l-1.6 2 16.9 8.5z"/></g></svg>