<svg version="1.2" xmlns="http://www.w3.org/2000/svg" viewBox="0 0 19 19" width="19" height="19"><defs><clipPath clipPathUnits="userSpaceOnUse" id="cp1"><path d="m-1465-80h1920v2776h-1920z"/></clipPath></defs><style>.a{fill:#95989a}</style><g clip-path="url(#cp1)"><path fill-rule="evenodd" class="a" d="m14.5 19h-10c-2.5 0-4.5-2-4.5-4.5v-10c0-2.5 2-4.5 4.5-4.5h10c2.5 0 4.5 2 4.5 4.5v10c0 2.5-2 4.5-4.5 4.5zm-10-17.5c-1.7 0-3 1.3-3 3v10c0 1.7 1.3 3 3 3h10c1.7 0 3-1.3 3-3v-10c0-1.7-1.3-3-3-3zm11.3 2.8c0 0.5-0.5 0.9-1 0.9-0.5 0-0.9-0.4-0.9-0.9 0-0.5 0.4-1 0.9-1 0.5 0 1 0.5 1 1zm-6.2 10c-2.7 0-4.8-2.1-4.8-4.8 0.2-6.4 9.4-6.4 9.6 0 0 2.7-2.1 4.8-4.8 4.8zm0-8.1c-1.8 0-3.3 1.5-3.3 3.3 0.1 4.4 6.5 4.4 6.6 0 0-1.8-1.5-3.3-3.3-3.3z"/></g></svg>