<svg version="1.2" xmlns="http://www.w3.org/2000/svg" viewBox="0 0 86 85" width="86" height="85"><defs><clipPath clipPathUnits="userSpaceOnUse" id="cp1"><path d="m-977-1139h1920v2776h-1920z"/></clipPath></defs><style>.a{fill:#32325f}</style><g clip-path="url(#cp1)"><path class="a" d="m37.2 53.5c0 0.9-0.7 1.6-1.6 1.6-1 0-1.7-0.7-1.7-1.6 0-1 0.7-1.7 1.7-1.7 0.9 0 1.6 0.7 1.6 1.7z"/><path class="a" d="m37.2 63.4c0 0.9-0.7 1.7-1.6 1.7-1 0-1.7-0.8-1.7-1.7 0-0.9 0.7-1.6 1.7-1.6 0.9 0 1.6 0.7 1.6 1.6z"/><path class="a" d="m65.8 53.5c0 0.9-0.8 1.6-1.7 1.6h-21.9c-0.9 0-1.7-0.7-1.7-1.6 0-1 0.8-1.7 1.7-1.7h21.9c0.9 0 1.7 0.7 1.7 1.7z"/><path class="a" d="m65.8 63.4c0 0.9-0.8 1.7-1.7 1.7h-21.9c-0.9 0-1.7-0.8-1.7-1.7 0-0.9 0.8-1.6 1.7-1.6h21.9c0.9 0 1.7 0.7 1.7 1.6z"/><path fill-rule="evenodd" class="a" d="m5 79.7c-2.8-3.7-4.3-8.3-4.3-13v-53.4c0-1.6 0.6-3.2 1.7-4.4v-3.9c0-2.8 2.2-5 4.9-5 2.8 0 5 2.2 5 5v3.9c1.1 1.2 1.7 2.7 1.7 4.4v3.3h1.6c2.8 0 5 2.2 5 5v15.3c0 0.9-0.7 1.6-1.6 1.6-1 0-1.7-0.7-1.7-1.6v-15.3c0-0.9-0.7-1.7-1.7-1.7h-1.6v46.8c0 4.7-1.6 9.3-4.3 13l-0.7 0.9v2.7c0 1-0.7 1.7-1.7 1.7-0.9 0-1.6-0.7-1.6-1.7v-2.7zm5.6-59.8h-6.6v45.2h6.6zm0-3.4v-3.3c0-1.8-1.5-3.3-3.3-3.3-1.8 0-3.3 1.5-3.3 3.3v3.3zm-5-11.6v1.9q0.8-0.2 1.7-0.2 0.8 0 1.6 0.2v-1.9c0-0.9-0.7-1.6-1.6-1.6-1 0-1.7 0.7-1.7 1.6zm-1.6 63.4c0.3 3.2 1.4 6.3 3.3 8.9 1.8-2.6 2.9-5.7 3.2-8.9z"/><path fill-rule="evenodd" class="a" d="m84 28.6h-8.3v47.7c0 4.6-3.4 8.7-8.3 8.7h-38.5c-6.4 0-11.6-5.2-11.6-11.6 0-0.9 0.7-1.7 1.7-1.7h4.9v-51.4c0-4.6 3.8-8.3 8.3-8.3 0 0 46.5 0 46.9 0 3.6 0 6.6 2.9 6.6 6.6v8.3c0 0.9-0.7 1.7-1.7 1.7zm-23.2 53.1c-1-1.4-1.7-3.1-1.7-5v-1.7h-38.3c0.8 3.8 4.1 6.7 8.1 6.7zm12.5-66.4h-41c-2.8 0-5 2.2-5 5v51.4h33.5c0.9 0 1.7 0.8 1.7 1.7v3.3c0 2.7 2.2 5 5 5 2.9 0 4.9-2.6 4.9-5.4v-57.7c0-1.2 0.4-2.4 0.9-3.3zm9.1 3.3c0-1.8-1.5-3.3-3.3-3.3-1.8 0-3.3 1.4-3.3 3.3v6.6h6.6z"/><path fill-rule="evenodd" class="a" d="m36.6 29.8c0-4.4 3.3-7.9 7.5-7.9 2.7 0 4.6 1.5 5.7 3 1.1-1.5 3-3 5.7-3 4.2 0 7.5 3.5 7.5 7.9 0 4.7-3.9 8-9.1 12.4q-1.5 1.2-3 2.6c-0.3 0.2-0.7 0.4-1.1 0.4-0.4 0-0.8-0.2-1.1-0.4q-1.5-1.4-2.9-2.6c-5.3-4.4-9.2-7.7-9.2-12.4zm3.4 0c0 3.2 3 5.7 7.9 9.9q0.9 0.8 1.9 1.6 1-0.8 1.9-1.6c5-4.2 7.9-6.7 7.9-9.9 0-2.6-1.7-4.6-4.1-4.6-3 0-4.1 3.7-4.1 3.8-0.2 0.7-0.9 1.2-1.6 1.2-0.7 0-1.4-0.5-1.6-1.2 0-0.1-1.1-3.8-4.1-3.8-2.4 0-4.1 2-4.1 4.6z"/></g></svg>