<svg version="1.2" xmlns="http://www.w3.org/2000/svg" viewBox="0 0 86 85" width="86" height="85"><defs><clipPath clipPathUnits="userSpaceOnUse" id="cp1"><path d="m-684-1139h1920v2776h-1920z"/></clipPath></defs><style>.a{fill:#32325f}</style><g clip-path="url(#cp1)"><path  d="m36.8 57.7c-0.7-0.7-0.7-1.7 0-2.4 0.6-0.6 1.7-0.6 2.3 0 0.6 0.7 0.6 1.7 0 2.4-0.6 0.6-1.7 0.6-2.3 0z"/><path fill-rule="evenodd" class="a" d="m49.5 0c10.1 0 18.3 8.2 18.3 18.3 0 10-8.2 18.2-18.3 18.2-10.1 0-18.3-8.2-18.3-18.2 0-10.1 8.2-18.3 18.3-18.3zm0 3.3c-8.2 0-14.9 6.7-14.9 15 0 8.2 6.7 14.9 14.9 14.9 8.2 0 14.9-6.7 14.9-14.9 0-8.3-6.7-15-14.9-15z"/><path fill-rule="evenodd" class="a" d="m0.5 65.7c-0.6-0.6-0.6-1.7 0-2.3l7.9-7.9c1.2-1.2 2.9-1.7 4.5-1.4 3.7-6.9 10.7-10.6 18.7-10.6 2.9 0 5.7 0.5 8.3 1.6h18.5c2 0 3.9 1 5.2 2.5l9.7-10.1c2.4-2.7 6.6-3 9.4-0.7 2.8 2.4 3.1 6.6 0.7 9.4-15.9 19-14.9 17.8-15 17.9-2.8 2.8-6.5 4.3-10.4 4.3h-22.1c-1.3 0-2.5 0.5-3.4 1.4l-1.8 1.6c0.6 1.8 0.2 3.8-1.2 5.2l-8 7.9c-0.7 0.7-1.7 0.7-2.3 0zm15.2-10l13 13 1.4-1.3c1.5-1.5 3.6-2.4 5.7-2.4h22.1c3 0 5.9-1.1 8.1-3.2l14.8-17.8c1.2-1.4 1.1-3.5-0.3-4.7-1.4-1.2-3.5-1-4.7 0.4-0.1 0.1-1.4 1.5-10.9 11.2q0.1 0.4 0.1 0.9c0 3.6-3 6.6-6.7 6.6h-13.5c-0.9 0-1.7-0.7-1.7-1.7 0-0.9 0.8-1.6 1.7-1.6h13.5c1.9 0 3.3-1.5 3.3-3.3 0-1.9-1.5-3.4-3.3-3.4h-18.8q-0.4 0-0.7-0.1c-2.3-1-4.7-1.5-7.3-1.5-7.1 0-12.8 3.2-15.8 8.9zm-11.7 8.8l16.3 16.5 6.8-6.8c0.7-0.6 0.7-1.7 0-2.3-14.9-14.9-14.1-14.2-14.3-14.3-0.7-0.5-1.5-0.4-2.1 0.2z"/><path  d="m49.2 6.6c0.9 0 1.6 0.8 1.6 1.7v1.9c0.8 0.3 1.6 0.7 2.5 1.6 0.6 0.6 0.6 1.6 0 2.3-0.6 0.7-1.7 0.7-2.3 0-0.6-0.5-1.2-0.8-1.8-0.8-0.9 0-1.7 0.7-1.7 1.6 0 1 0.8 1.7 1.7 1.7 2.7 0 4.9 2.2 4.9 5 0 2.1-1.3 4-3.3 4.7v1.9c0 0.9-0.7 1.7-1.6 1.7-1 0-1.7-0.8-1.7-1.7v-1.9c-1.1-0.4-2.1-1.1-3-2.2-0.6-0.7-0.5-1.7 0.2-2.3 0.7-0.6 1.7-0.5 2.3 0.2 0.7 0.8 1.5 1.2 2.2 1.2 0.9 0 1.6-0.7 1.6-1.6 0-0.9-0.7-1.7-1.6-1.7-2.8 0-5-2.2-5-5 0-2.1 1.4-4 3.3-4.7v-1.9c0-0.9 0.7-1.7 1.7-1.7z"/></g></svg>