<svg version="1.2" xmlns="http://www.w3.org/2000/svg" viewBox="0 0 25 18" width="25" height="18"><defs><clipPath clipPathUnits="userSpaceOnUse" id="cp1"><path d="m-1417-81h1920v2776h-1920z"/></clipPath><clipPath clipPathUnits="userSpaceOnUse" id="cp2"><path d="m-7 0h39v17h-39z"/></clipPath></defs><style>.a{fill:#95989a}</style><g clip-path="url(#cp1)"><g clip-path="url(#cp2)"><path fill-rule="evenodd" class="a" d="m24.8 8.7c0 0 0 4-0.5 5.9-0.3 1.1-1.2 1.9-2.2 2.2-2 0.5-9.7 0.5-9.7 0.5 0 0-7.7 0-9.6-0.5-1.1-0.3-1.9-1.2-2.2-2.2-0.5-1.9-0.5-6-0.5-6 0 0 0-4 0.5-5.9 0.3-1.1 1.1-1.9 2.2-2.2 1.9-0.5 9.6-0.5 9.6-0.5 0 0 7.7 0 9.7 0.5 1 0.3 1.9 1.1 2.2 2.2 0.5 1.9 0.5 6 0.5 6zm-8.4-0.1l-6.4-3.7v7.4z"/></g></g></svg>