<svg version="1.2" xmlns="http://www.w3.org/2000/svg" viewBox="0 0 74 85" width="74" height="85"><defs><clipPath clipPathUnits="userSpaceOnUse" id="cp1"><path d="m-393-1139h1920v2776h-1920z"/></clipPath></defs><style>.a{fill:#32325f}</style><g clip-path="url(#cp1)"><path class="a" d="m43.3 28.2c0-0.9 0.7-1.6 1.6-1.6 0.9 0 1.7 0.7 1.7 1.6 0 0.9-0.8 1.7-1.7 1.7-0.9 0-1.6-0.8-1.6-1.7z"/><path class="a" d="m26.7 28.2c0-0.9 0.7-1.6 1.6-1.6 0.9 0 1.7 0.7 1.7 1.6 0 0.9-0.8 1.7-1.7 1.7-0.9 0-1.6-0.8-1.6-1.7z"/><path class="a" d="m31.4 39.1c0.4-0.8 1.4-1.2 2.2-0.8q1.4 0.7 3 0.7 1.6 0 3-0.7c0.8-0.4 1.8 0 2.2 0.8 0.4 0.9 0 1.9-0.8 2.2q-2.1 1-4.4 1-2.3 0-4.4-1c-0.9-0.4-1.2-1.4-0.8-2.2z"/><path fill-rule="evenodd" class="a" d="m73.2 83.3c0 1-0.7 1.7-1.6 1.7h-69.9c-1 0-1.7-0.7-1.7-1.7v-15.9c0-9.2 10.4-16.3 19.3-16.7l4.6-4.1c-5.5-4-8.8-10.5-8.8-17.4v-10.9c0-10.1 8.1-18.3 18.2-18.3h6.7c10.1 0 18.3 8.2 18.3 18.3v10.9c0 6.9-3.4 13.4-8.9 17.5l4.5 4c8.9 0.4 19.3 7.5 19.3 16.7zm-42.1-1.7h10.9l-1.7-7.6h-7.4zm10.7-14.9l-5.2-2.6-5.1 2.5 1.3 4h7.6zm0.6-16.8q-2.8 0.8-5.7 0.8-3 0-5.8-0.8l5.7 9.2zm3.5 15.1l5.4-12.3-4.3-3.8-7.9 12.7zm-27.4-46.8v1.2l3-4.3c0.2-0.4 0.7-0.7 1.2-0.7 0.5-0.1 1 0.1 1.3 0.4 3.4 3.5 7.3 5 12.7 5 5.4 0 9.3-1.5 12.7-5 0.3-0.3 0.8-0.5 1.3-0.4 0.5 0 0.9 0.3 1.2 0.7l3.1 4.4v-1.3c0-8.3-6.7-15-15-15h-6.6c-8.2 0-14.9 6.7-14.9 15zm18.2 29.2c10.2 0 18.3-8.3 18.3-18.3v-3.7l-4.7-6.9c-3.7 3.2-8.1 4.7-13.6 4.7-5.5 0-9.9-1.5-13.6-4.7l-4.6 6.8v3.8c0 10 8 18.3 18.2 18.3zm-14.7 5.3l5.5 12.3 6.8-3.4-8-12.7zm-18.6 28.8h24.4l2.2-9.2-1.4-4.2-1.2 0.6c-0.4 0.2-0.8 0.2-1.3 0.1-0.4-0.2-0.7-0.5-0.9-0.9l-6.2-14c-7.3 0.6-15.6 6.5-15.6 13.3zm66.6-14.3c0-6.8-8.3-12.7-15.6-13.3l-6.2 14c-0.2 0.4-0.5 0.7-1 0.9-0.4 0.1-0.9 0.1-1.3-0.1l-1-0.6-1.5 4.2 2.1 9.2h24.5z"/><path class="a" d="m59.9 75.7c0 0.9-0.8 1.7-1.7 1.7h-6.6c-1 0-1.7-0.8-1.7-1.7 0-0.9 0.7-1.7 1.7-1.7h6.6c0.9 0 1.7 0.8 1.7 1.7z"/><path class="a" d="m64.7 74c1 0 1.7 0.8 1.7 1.7 0 0.9-0.7 1.7-1.7 1.7-0.9 0-1.6-0.8-1.6-1.7 0-0.9 0.7-1.7 1.6-1.7z"/></g></svg>