<svg version="1.2" xmlns="http://www.w3.org/2000/svg" viewBox="0 0 58 36" width="58" height="36"><style></style><path fill-rule="evenodd" d="m58 19.9v9.5c0 0.5-0.4 0.9-0.9 0.9h-3q0 0 0 0.1c0 3.1-2.6 5.6-5.7 5.6-3.2 0-5.8-2.5-5.8-5.6q0-0.1 0-0.1h-20.4q0 0 0 0.1c0 3.1-2.6 5.6-5.8 5.6-3.2 0-5.7-2.5-5.7-5.6q0-0.1 0-0.1h-4.9c-1.1 0-1.9-0.8-1.9-1.8v-2h-3c-0.5 0-0.9-0.4-0.9-0.9 0-0.5 0.4-0.9 0.9-0.9h8.7c0.5 0 0.9 0.4 0.9 0.9 0 0.5-0.4 0.9-0.9 0.9h-3.9v2q0 0 0.1 0h5.2c0.8-2.2 2.9-3.8 5.4-3.8 2.5 0 4.7 1.6 5.4 3.8h18.9v-6.7c0-0.5 0.4-0.9 0.9-0.9 0.5 0 0.9 0.4 0.9 0.9v6.7h0.4c0.8-2.2 3-3.8 5.5-3.8 2.5 0 4.6 1.6 5.4 3.8h2.4v-3.9h-1c-1.6 0-2.9-1.3-2.9-2.8v-1.9c0-0.5 0.4-0.9 0.9-0.9h2.8c-0.3-1.2-1.5-2-2.8-2q0 0 0 0 0 0 0 0h-10.7v1c0 0.5-0.4 0.9-0.9 0.9-0.5 0-0.9-0.4-0.9-0.9v-16.2q0 0-0.1 0h-34.8q-0.1 0-0.1 0v16.2c0 0.5-0.4 0.9-0.9 0.9-0.5 0-0.9-0.4-0.9-0.9v-16.2c0-1 0.8-1.8 1.9-1.8h34.8c1.1 0 1.9 0.8 1.9 1.8v2h6.8c2.1 0 3.9 1.7 3.9 3.7v1c0 0.4-0.4 0.8-0.8 0.9l1.5 5.9c2.3 0.3 4.1 2.3 4.1 4.6zm-15.5-12.3h8.8v-0.1c0-1-0.9-1.9-2-1.9h-6.8zm0 7.6h9.6l-1.5-5.8h-8.1zm-22.2 15.1c0-2.1-1.7-3.8-3.9-3.8-2.2 0-3.9 1.7-3.9 3.8 0 2.1 1.7 3.9 3.9 3.9 2.2 0 3.9-1.8 3.9-3.9zm32 0c0-2.1-1.8-3.8-3.9-3.8-2.2 0-4 1.7-4 3.8 0 2.1 1.8 3.9 4 3.9 2.1 0 3.9-1.8 3.9-3.9zm3.9-7.5v-2h-2.1v1c0 0.5 0.5 1 1.1 1zm-37.9 7.5c0 1-0.9 1.9-1.9 1.9-1.1 0-1.9-0.9-1.9-1.9 0-1 0.8-1.8 1.9-1.8 1 0 1.9 0.8 1.9 1.8zm31.9 0c0 1-0.8 1.9-1.9 1.9-1 0-1.8-0.9-1.8-1.9 0-1 0.8-1.8 1.8-1.8 1.1 0 1.9 0.8 1.9 1.8zm-11.6-4.7c0 0.5-0.4 0.9-0.9 0.9h-13.6c-0.5 0-0.9-0.4-0.9-0.9 0-0.5 0.4-0.9 0.9-0.9h13.6c0.5 0 0.9 0.4 0.9 0.9zm-23.3-3.8c0 0.5-0.4 0.9-0.9 0.9h-11.6c-0.5 0-0.9-0.4-0.9-0.9 0-0.5 0.4-0.9 0.9-0.9h11.6c0.5 0 0.9 0.4 0.9 0.9zm16.3-11.8l-8.8 8.6q-0.2 0.2-0.6 0.2-0.4 0-0.7-0.2l-4.8-4.8c-0.4-0.3-0.4-0.9 0-1.2 0.4-0.4 0.9-0.4 1.3 0l4.2 4.1 8.1-7.9c0.3-0.4 0.9-0.4 1.3 0 0.3 0.3 0.3 0.9 0 1.2z"/></svg>