<svg version="1.2" xmlns="http://www.w3.org/2000/svg" viewBox="0 0 58 38" width="58" height="38"><style></style><path fill-rule="evenodd" d="m58 5.9v2.4q0 0 0 0v7.1q0 0 0 0.1v16.6c0 3.2-2.7 5.9-6 5.9h-46c-3.3 0-6-2.7-6-5.9v-16.7q0 0 0 0v-9.5c0-3.2 2.7-5.9 6-5.9h46c3.3 0 6 2.7 6 5.9zm-2.4 26.2v-15.5h-53.2v15.5c0 1.9 1.6 3.5 3.6 3.5h46c2 0 3.6-1.6 3.6-3.5zm0-26.2c0-1.9-1.6-3.5-3.6-3.5h-46c-2 0-3.6 1.6-3.6 3.5v1.2h53.2zm0 8.3v-4.7h-53.2v4.7zm-31.4 10.7c0 0.7-0.5 1.2-1.2 1.2h-14.5c-0.7 0-1.2-0.5-1.2-1.2 0-0.6 0.5-1.2 1.2-1.2h14.5c0.7 0 1.2 0.6 1.2 1.2zm0 4.8c0 0.6-0.5 1.2-1.2 1.2h-14.5c-0.7 0-1.2-0.6-1.2-1.2 0-0.7 0.5-1.2 1.2-1.2h14.5c0.7 0 1.2 0.5 1.2 1.2zm26.6-4.8v2.4c0 2-1.6 3.6-3.6 3.6h-2.5c-2 0-3.6-1.6-3.6-3.6v-2.4c0-1.9 1.6-3.5 3.6-3.5h2.5c2 0 3.6 1.6 3.6 3.5zm-2.4 0c0-0.6-0.6-1.2-1.2-1.2h-2.5c-0.6 0-1.2 0.6-1.2 1.2v2.4c0 0.7 0.6 1.2 1.2 1.2h2.5c0.6 0 1.2-0.5 1.2-1.2z"/></svg>