<svg version="1.2" xmlns="http://www.w3.org/2000/svg" viewBox="0 0 54 40" width="54" height="40"><style></style><path fill-rule="evenodd" d="m54 23.3v13.4c0 1.8-1.5 3.3-3.4 3.3h-33.7q0 0 0 0 0 0 0 0h-13.5c-1.9 0-3.4-1.5-3.4-3.3v-13.4c0-5.5 4.5-10 10.1-10h16.9v-12.2c0-0.6 0.5-1.1 1.1-1.1h11.3c0.6 0 1.1 0.5 1.1 1.1v6.7c0 0.6-0.5 1.1-1.1 1.1h-10.1v4.4h14.6c5.6 0 10.1 4.5 10.1 10zm-2.2 0c0-4.3-3.6-7.7-7.9-7.7h-14.6v7.7c0 0.6-0.6 1.1-1.2 1.1-0.6 0-1.1-0.5-1.1-1.1v-7.7h-10.5c2.3 1.8 3.8 4.6 3.8 7.7v13.4q-0.1 0.6-0.2 1.1h30.5c0.6 0 1.2-0.5 1.2-1.1zm-49.6 0v13.3c0 0.6 0.6 1.1 1.2 1.1h13.5c0.6 0 1.1-0.5 1.1-1.1v-13.3c0-4.3-3.5-7.8-7.9-7.8-4.3 0-7.9 3.5-7.9 7.8zm36.1-21.1h-9v4.4h9z"/></svg>