<svg version="1.2" xmlns="http://www.w3.org/2000/svg" viewBox="0 0 54 50" width="54" height="50"><style></style><path fill-rule="evenodd" d="m27.4 45.2c0 2.7-2.1 4.8-4.8 4.8-2.6 0-4.7-2.1-4.7-4.8 0-2.6 2.1-4.7 4.7-4.7 2.7 0 4.8 2.1 4.8 4.7zm-2.7 0c0-1.1-0.9-2.1-2.1-2.1-1.1 0-2.1 1-2.1 2.1 0 1.2 1 2.1 2.1 2.1 1.2 0 2.1-0.9 2.1-2.1zm19.4 0c0 2.7-2.2 4.8-4.8 4.8-2.6 0-4.7-2.1-4.7-4.8 0-2.6 2.1-4.7 4.7-4.7 2.6 0 4.8 2.1 4.8 4.7zm-2.7 0c0-1.1-0.9-2.1-2.1-2.1-1.2 0-2.1 1-2.1 2.1 0 1.2 0.9 2.1 2.1 2.1 1.2 0 2.1-0.9 2.1-2.1zm0.4-28.4c0 0.7-0.6 1.3-1.3 1.3h-19c-0.8 0-1.4-0.6-1.4-1.3 0-0.7 0.6-1.3 1.4-1.3h19c0.7 0 1.3 0.6 1.3 1.3zm-1 6.9c0 0.7-0.6 1.3-1.4 1.3h-16.9c-0.7 0-1.3-0.6-1.3-1.3 0-0.7 0.6-1.3 1.3-1.3h16.9c0.8 0 1.4 0.6 1.4 1.3zm13.1-11.9l-3.7 18c-0.2 1.2-1.3 2.1-2.6 2.1h-32.7l0.7 3.8h31.8c0.7 0 1.3 0.6 1.3 1.3 0 0.8-0.6 1.4-1.3 1.4h-31.8c-1.2 0-2.3-0.9-2.6-2.2l-6.4-31.1-5.8-2.6c-0.7-0.2-1-1-0.7-1.7 0.3-0.7 1.1-1 1.8-0.7l5.8 2.5c0.8 0.4 1.3 1.1 1.5 1.9l0.8 4.1h41.3c0.9 0 1.6 0.3 2.1 1 0.5 0.6 0.7 1.4 0.5 2.2zm-2.6-0.6h-40.7l3.7 18.1h33.3z"/></svg>